<svg width="60" height="60" viewBox="0 0 60 60" fill="none" xmlns="http://www.w3.org/2000/svg">
<path d="M57 15H56.8286C57.1529 14.0817 57.0116 13.0632 56.4493 12.268C55.8871 11.4729 54.9738 11 54 10.9999H52.8286C53.153 10.0816 53.0116 9.06316 52.4494 8.26793C51.8871 7.4727 50.9739 6.99996 50 6.99984H39C36.5958 7.0009 34.237 7.65469 32.1754 8.89148C30.9047 9.63328 29.4566 10.0164 27.9854 9.99984H25.0001V8.00004C25 7.02621 24.5271 6.11297 23.732 5.5507C22.9369 4.98844 21.9183 4.84699 21 5.17148V3C21 1.3432 19.6569 0 18 0C16.3431 0 15 1.34309 15 3V3.17145C14.0817 2.84707 13.0632 2.9884 12.268 3.55066C11.4728 4.11293 11.0002 5.02617 11 6V7.17141C10.0818 6.84703 9.06328 6.98836 8.26805 7.55062C7.47293 8.11289 7.00008 9.02613 6.99996 9.99996V21C7.00102 23.4042 7.6548 25.763 8.8916 27.8248C9.6334 29.0954 10.0165 30.5435 9.99996 32.0147V35H8.00004C7.02621 35.0002 6.11297 35.473 5.5507 36.2681C4.98844 37.0632 4.84699 38.0818 5.17148 39.0001H3C1.34309 39 0 40.3432 0 42C0 43.6568 1.34309 45 3 45H3.17145C2.84707 45.9183 2.9884 46.9368 3.55066 47.732C4.11293 48.5272 5.02617 49 6 49.0001H7.17141C6.84703 49.9184 6.98836 50.9368 7.55062 51.7321C8.11289 52.5272 9.02613 53 9.99996 53.0002H21C23.4042 52.9991 25.763 52.3453 27.8248 51.1085C29.0954 50.3667 30.5435 49.9836 32.0147 50.0002H35V52.0002C35.0002 52.974 35.473 53.8873 36.2681 54.4495C37.0632 55.0118 38.0818 55.1532 39.0001 54.8288V57C39.0001 58.6568 40.3433 60 42.0001 60C43.6569 60 45.0001 58.6569 45.0001 57V56.8286C45.9184 57.1529 46.9369 57.0116 47.7321 56.4493C48.5272 55.8871 49.0001 54.9738 49.0002 54V52.8286C49.9185 53.153 50.937 53.0116 51.7322 52.4494C52.5273 51.8871 53.0002 50.9739 53.0003 50V39C52.9992 36.5958 52.3454 34.237 51.1086 32.1754C50.3668 30.9047 49.9837 29.4566 50.0003 27.9854V25.0001H52.0003C52.9741 25 53.8874 24.5271 54.4496 23.732C55.0119 22.9369 55.1534 21.9183 54.8289 21H57C58.6568 21 60 19.6569 60 18C60 16.3431 58.6569 15 57 15ZM9 21V9.99996C9 9.44766 9.44766 9 9.99996 9C10.5523 9 10.9999 9.44766 10.9999 9.99996V16.9999C10.9999 17.5522 11.4476 17.9999 11.9999 17.9999C12.5522 17.9999 12.9998 17.5521 12.9998 16.9999V6C12.9998 5.4477 13.4475 5.00004 13.9998 5.00004C14.5521 5.00004 15 5.4477 15 6V17C15 17.5523 15.4477 18 16 18C16.5523 18 16.9999 17.5522 16.9999 17V3C16.9999 2.4477 17.4477 2.00004 17.9999 2.00004C18.5522 2.00004 18.9998 2.4477 18.9998 3V17C18.9998 17.5523 19.4475 18 19.9998 18C20.5521 18 20.9998 17.5522 20.9998 17V8.00004C20.9998 7.44773 21.4474 7.00008 21.9997 7.00008C22.552 7.00008 22.9997 7.44773 22.9997 8.00004V23C22.9997 23.5523 23.4473 24 23.9996 24H25.9369C25.7217 25.7464 24.8422 27.3429 23.4811 28.458C22.5505 29.2226 22.0077 30.3612 21.9996 31.5655V35H12V32.0147C12.0164 30.1808 11.5348 28.377 10.6064 26.7954C9.55606 25.0447 9.00082 23.0416 9 21ZM27.9327 24H28.4345C29.0461 24.0089 29.6223 24.2887 30.0073 24.7642C31.5137 26.5632 33.6649 27.7007 36 27.9328V28.4346C35.9911 29.0462 35.7112 29.6224 35.2358 30.0074C33.4368 31.5138 32.2993 33.665 32.0672 36.0001H31.5654C30.9538 35.9912 30.3776 35.7114 29.9926 35.2359C28.4862 33.4369 26.335 32.2995 23.9999 32.0673V31.5655C24.0088 30.9539 24.2886 30.3777 24.7641 29.9927C26.5632 28.4862 27.7007 26.335 27.9327 24ZM35 48H32.0147C30.1808 47.9835 28.377 48.4652 26.7954 49.3936C25.0447 50.4439 23.0416 50.9992 21 51H9.99996C9.44766 51 9 50.5523 9 50C9 49.4477 9.44766 49.0001 9.99996 49.0001H16.9999C17.5522 49.0001 17.9999 48.5524 17.9999 48.0001C17.9999 47.4478 17.5521 47.0002 16.9999 47.0002H6C5.4477 47.0002 5.00004 46.5524 5.00004 46.0002C5.00004 45.4479 5.4477 45.0002 6 45.0002H17C17.5523 45.0002 18 44.5526 18 44.0003C18 43.448 17.5522 43.0003 17 43.0003H3C2.4477 43.0003 2.00004 42.5527 2.00004 42.0004C2.00004 41.448 2.4477 41.0004 3 41.0004H17C17.5523 41.0004 18 40.5527 18 40.0004C18 39.4481 17.5522 39.0005 17 39.0005H8.00004C7.44773 39.0005 7.00008 38.5528 7.00008 38.0005C7.00008 37.4482 7.44773 37.0005 8.00004 37.0005H23C23.5523 37.0005 24 36.5529 24 36.0006V34.0634C25.7464 34.2785 27.3429 35.158 28.458 36.5191C29.2226 37.4497 30.3612 37.9925 31.5655 38.0006H35V48ZM51 39V50C51 50.5523 50.5523 51 50 51C49.4477 51 49.0001 50.5523 49.0001 50V43.0001C49.0001 42.4478 48.5524 42.0001 48.0001 42.0001C47.4478 42.0001 47.0002 42.4478 47.0002 43.0001V54C47.0002 54.5523 46.5524 55 46.0002 55C45.4479 55 45.0002 54.5523 45.0002 54V43C45.0002 42.4477 44.5526 42 44.0003 42C43.448 42 43.0003 42.4477 43.0003 43V57C43.0003 57.5523 42.5527 58 42.0004 58C41.448 58 41.0004 57.5523 41.0004 57V43C41.0004 42.4477 40.5527 42 40.0004 42C39.4481 42 39.0005 42.4477 39.0005 43V52C39.0005 52.5523 38.5528 52.9999 38.0005 52.9999C37.4482 52.9999 37.0005 52.5523 37.0005 52V37C37.0005 36.4477 36.5529 36 36.0006 36H34.0634C34.2785 34.2536 35.158 32.6571 36.5191 31.542C37.4497 30.7774 37.9925 29.6388 38.0006 28.4345V25H48V27.9853C47.9835 29.8191 48.4652 31.623 49.3936 33.2045C50.4439 34.9553 50.9992 36.9584 51 39ZM57 19H43C42.4477 19 42 19.4476 42 19.9999C42 20.5522 42.4477 20.9999 43 20.9999H52C52.5523 20.9999 52.9999 21.4475 52.9999 21.9998C52.9999 22.5521 52.5523 22.9998 52 22.9998H37C36.4477 22.9998 36 23.4475 36 23.9998V25.937C34.2536 25.7218 32.6571 24.8423 31.542 23.4812C30.7774 22.5506 29.6388 22.0078 28.4345 21.9997H25V12H27.9853C29.8191 12.0164 31.623 11.5348 33.2045 10.6064C34.9552 9.55606 36.9582 9.00082 38.9999 9H49.9999C50.5522 9 50.9999 9.44766 50.9999 9.99996C50.9999 10.5523 50.5522 10.9999 49.9999 10.9999H43C42.4477 10.9999 42 11.4476 42 11.9999C42 12.5522 42.4477 12.9998 43 12.9998H54C54.5523 12.9998 55 13.4475 55 13.9998C55 14.5521 54.5523 15 54 15H43C42.4477 15 42 15.4477 42 16C42 16.5523 42.4477 16.9999 43 16.9999H57C57.5523 16.9999 58 17.4477 58 17.9999C58 18.5523 57.5523 19 57 19Z" fill="white"/>
</svg>
